# AST/ASF file generated using VICON BodyLanguage
# -----------------------------------------------
:version 1.10
:name VICON
:units
  mass 1.0
  length 0.45
  angle deg
:documentation
   .ast/.asf automatically generated from VICON data using
   VICON BodyBuilder and BodyLanguage model FoxedUp or BRILLIANT.MOD
:root
   order TX TY TZ RX RY RZ
   axis XYZ
   position 0 0 0  
   orientation 0 0 0 
:bonedata
  begin
     id 1 
     name lhipjoint
     direction 0.603808 -0.713975 0.35448 
     length 2.2025 
     axis 0 0 0  XYZ
  end
  begin
     id 2 
     name lfemur
     direction 0.34202 -0.939693 0  
     length 6.55877  
     axis 0 0 20  XYZ
    dof rx ry rz
    limits (-160.0 20.0)
           (-70.0 70.0)
           (-60.0 70.0)
  end
  begin
     id 3 
     name ltibia
     direction 0.34202 -0.939693 0   
     length 6.80302   
     axis 0 0 20   XYZ
    dof rx
    limits (-10.0 170.0)
  end
  begin
     id 4 
     name lfoot
     direction 0.091848 -0.25235 0.963267   
     length 2.03446   
     axis -90 7.62852e-016 20   XYZ
    dof rx rz
    limits (-45.0 90.0)
           (-70.0 20.0)
  end
  begin
     id 5 
     name ltoes
     direction 1.53608e-011 -4.21925e-011 1   
     length 1.02033   
     axis -90 7.62852e-016 20   XYZ
    dof rx
    limits (-90.0 20.0)
  end
  begin
     id 6 
     name rhipjoint
     direction -0.587285 -0.724947 0.359928   
     length 2.16916  
     axis 0 0 0  XYZ 
  end
  begin
     id 7 
     name rfemur
     direction -0.34202 -0.939693 0   
     length 6.43173   
     axis 0 0 -20   XYZ
    dof rx ry rz
    limits (-160.0 20.0)
           (-70.0 70.0)
           (-70.0 60.0)
  end
  begin
     id 8 
     name rtibia
     direction -0.34202 -0.939693 0   
     length 6.70662   
     axis 0 0 -20   XYZ
    dof rx
    limits (-10.0 170.0)
 end
 begin
     id 9 
     name rfoot
     direction -0.11854 -0.325686 0.938018   
     length 2.0773  
     axis -90 -7.62852e-016 -20   XYZ
    dof rx rz
    limits (-45.0 90.0)
           (-20.0 70.0)
  end
  begin
     id 10 
     name rtoes
     direction -1.53547e-011 -4.21838e-011 1   
     length 1.03267   
     axis -90 -7.62852e-016 -20   XYZ
    dof rx
    limits (-90.0 20.0)
  end
  begin
     id 11 
     name lowerback
     direction -0.0286554 0.999539 0.0100613   
     length 2.08751   
     axis 0 0 0   XYZ
    dof rx ry rz
    limits (-20.0 45.0)
           (-30.0 30.0)
           (-30.0 30.0)
  end
  begin
     id 12 
     name upperback
     direction 0.0227093 0.999705 -0.00860929   
     length 2.08517   
     axis 0 0 0   XYZ
    dof rx ry rz
    limits (-20.0 45.0)
           (-30.0 30.0)
           (-30.0 30.0)
  end
  begin
     id 13 
     name thorax
     direction 0.0351627 0.999285 -0.013892   
     length 2.08412   
     axis 0 0 0   XYZ
    dof rx ry rz
    limits (-20.0 45.0)
           (-30.0 30.0)
           (-30.0 30.0)
  end
  begin
     id 14 
     name lowerneck
     direction -0.0696283 0.997344 0.0213922   
     length 1.44164   
     axis 0 0 0   XYZ
    dof rx ry rz
    limits (-20.0 45.0)
           (-30.0 30.0)
           (-30.0 30.0)
  end
  begin
     id 15 
     name upperneck
     direction 0.0531 0.990412 -0.127531   
     length 1.45022   
     axis 0 0 0   XYZ
    dof rx ry rz
    limits (-20.0 45.0)
           (-30.0 30.0)
           (-30.0 30.0)
  end
  begin
     id 16
     name head
     direction 0.0188154 0.998548 -0.0504727  
     length 1.45845  
     axis 0 0 0   XYZ
    dof rx ry rz
    limits (-20.0 45.0)
           (-30.0 30.0)
           (-30.0 30.0)
  end
  begin
     id 17 
     name lclavicle
     direction 0.961559 0.260051 0.088188  
     length 2.86057  
     axis 0 0 0   XYZ
    dof ry rz
    limits (-20.0 10.0)
           (0.0 20.0)
  end
  begin
     id 18 
     name lhumerus
     direction 1 -4.48959e-011 2.88185e-027   
     length 4.36901   
     axis 180 -30 -90   XYZ
    dof rx ry rz
    limits (-60.0 90.0)
           (-90.0 90.0)
           (-90.0 90.0)
  end
  begin
     id 19
     name lradius
     direction 1 -4.48965e-011 -3.92618e-028   
     length 3.21737   
     axis 180 -30 -90   XYZ
    dof rx
    limits (-10.0 170.0)
  end
  begin
     id 20
     name lwrist
     direction 1 -4.49037e-011 2.57246e-027   
     length 1.60869   
     axis -1.61769e-015 90 90   XYZ
    dof ry
    limits (-180.0 0.0)
 end
  begin
     id 21 
     name lhand
     direction 1 -4.48807e-011 5.12958e-027   
     length 0.564313   
     axis -3.27988e-015 90 90   XYZ
    dof rx rz
    limits (-90.0 90.0)
           (-45.0 45.0)
  end
  begin
     id 22 
     name lfingers
     direction 1 -4.48879e-011 1.02687e-026   
     length 0.454963   
     axis -6.5598e-015 90 90   XYZ
    dof rx
    limits (0.0 90.0)
  end
  begin
     id 23
     name lthumb
     direction 0.707107 -6.3475e-011 0.707107   
     length 0.653239   
     axis -90 45 2.19363e-014   XYZ
    dof rx rz
    limits (-45.0 45.0)
           (-45.0 45.0)
  end
  begin
     id 24 
     name rclavicle
     direction -0.954677 0.253915 0.155304   
     length 3.11497  
     axis 0 0 0   XYZ 
    dof ry rz
    limits (-10.0 20.0)
           (-20.0 0.0)
  end
  begin
     id 25 
     name rhumerus
     direction -1 -4.48958e-011 -8.20169e-028  
     length 4.34118   
     axis 180 30 90   XYZ
    dof rx ry rz
    limits (-90.0 60.0)
           (-90.0 90.0)
           (-90.0 90.0)
  end
  begin
     id 26 
     name rradius
     direction -1 -4.48978e-011 1.5676e-027   
     length 3.09531   
     axis 180 30 90   XYZ
    dof rx
    limits (-10.0 170.0)
  end
  begin
     id 27 
     name rwrist
     direction -1 -4.49001e-011 2.57123e-027   
     length 1.54765   
     axis -1.61769e-015 -90 -90   XYZ
    dof ry
    limits (-180.0 0.0)
  end
  begin
     id 28
     name rhand
     direction -1 -4.48847e-011 5.13225e-027   
     length 0.597446   
     axis -3.27988e-015 -90 -90   XYZ
    dof rx rz
    limits (-90.0 90.0)
           (-45.0 45.0)
  end
  begin
     id 29
     name rfingers
     direction -1 -4.49094e-011 1.02974e-026   
     length 0.481677   
     axis -6.5598e-015 -90 -90   XYZ
    dof rx
    limits (0.0 90.0)
  end
  begin
     id 30
     name rthumb
     direction -0.707107 -6.34859e-011 0.707107   
     length 0.691594   
     axis -90 -45 -2.19363e-014   XYZ
    dof rx rz
    limits (-45.0 45.0)
           (-45.0 45.0)
  end
:hierarchy
  begin
    root lhipjoint rhipjoint lowerback
    lhipjoint lfemur
    lfemur ltibia
    ltibia lfoot
    lfoot ltoes
    rhipjoint rfemur
    rfemur rtibia
    rtibia rfoot
    rfoot rtoes
    lowerback upperback
    upperback thorax
    thorax lowerneck lclavicle rclavicle
    lowerneck upperneck
    upperneck head
    lclavicle lhumerus
    lhumerus lradius
    lradius lwrist
    lwrist lhand lthumb
    lhand lfingers
    rclavicle rhumerus
    rhumerus rradius
    rradius rwrist
    rwrist rhand rthumb
    rhand rfingers
  end

#!OML:ASF I:\Acrobat_Osman\acrobat\cartwheel_test 2\Patient 1\Session 1\acrobat.ASF
:FULLY-SPECIFIED
:DEGREES
81
root 9.89762 15.5895 12.1308 13.2347 6.50863 1.39744
lowerback 2.41099 -7.11212 -2.12932
upperback 0.858087 -9.52616 4.4711
thorax 0.659142 -4.8186 5.88443
lowerneck -9.89153 -0.358477 -14.2035
upperneck 21.4071 1.34668 3.50953
head 8.19893 -0.167297 3.6732
rclavicle -3.3197e-014 -8.74653e-015
rhumerus -41.6168 -4.63461 -31.8621
rradius 21.3551
rwrist 10.9314
rhand -12.3685 15.8005
rfingers 7.12502
rthumb 13.7019 -13.7284
lclavicle -3.3197e-014 -8.74653e-015
lhumerus -3.72322 -23.2866 84.0836
lradius 40.6138
lwrist 10.6138
lhand -11.477 52.5854
lfingers 7.12502
lthumb 14.561 82.0543
rfemur -33.4798 3.65902 14.7284
rtibia 43.4113
rfoot -21.5179 -14.1183
rtoes -6.51885
lfemur -37.9051 -2.16425 -14.7392
ltibia 45.4508
lfoot -17.5068 -0.86697
ltoes -6.24547
82
root 9.89723 15.4882 11.9571 14.1807 5.58023 1.38085
lowerback 3.38022 -6.93404 -2.30873
upperback 1.12557 -9.29475 4.31194
thorax 0.37225 -4.70025 5.93378
lowerneck -9.83329 -0.124221 -14.0888
upperneck 20.3444 1.55355 3.8342
head 7.80135 0.0190778 3.75852
rclavicle -1.3577e-013 1.98785e-014
rhumerus -41.7243 -4.89345 -31.8592
rradius 21.387
rwrist 10.4413
rhand -11.7629 15.3356
rfingers 7.12502
rthumb 14.2855 -14.153
lclavicle -1.3577e-013 1.98785e-014
lhumerus -3.10967 -23.6263 83.6839
lradius 41.0096
lwrist 10.7665
lhand -11.7927 52.6964
lfingers 7.12502
lthumb 14.2567 82.187
rfemur -36.871 3.23961 14.2419
rtibia 45.5398
rfoot -21.1997 -11.9353
rtoes -5.81315
lfemur -40.2608 -2.27487 -13.9818
ltibia 46.6038
lfoot -17.8083 -1.75293
ltoes -5.07923
83
root 9.89464 15.3716 11.7789 15.2925 4.66144 1.45268
lowerback 4.10987 -6.77339 -2.66699
upperback 1.48663 -9.09918 4.1441
thorax 0.346444 -4.60878 6.02589
lowerneck -9.83775 0.110129 -13.9734
upperneck 19.0494 1.77365 4.16146
head 7.34227 0.219786 3.83844
rclavicle 8.26944e-014 -9.93923e-015
rhumerus -41.6743 -5.24671 -32.036
rradius 21.4723
rwrist 9.87089
rhand -11.3841 15.0883
rfingers 7.12502
rthumb 14.6505 -14.3741
lclavicle 8.26944e-014 -9.93923e-015
lhumerus -2.3329 -24.0203 83.1193
lradius 41.5378
lwrist 11.0013
lhand -12.247 52.4018
lfingers 7.12502
lthumb 13.819 81.9227
rfemur -40.4439 2.64424 13.7887
rtibia 47.7304
rfoot -20.6494 -9.97528
rtoes -7.09546
lfemur -42.9859 -1.41635 -13.8148
ltibia 48.0846
lfoot -18.0783 -2.611
ltoes -5.06461
84
root 9.89331 15.2437 11.6003 16.521 3.93144 1.51748
lowerback 5.05482 -6.67003 -2.86291
upperback 1.4958 -8.97315 3.9342
thorax -0.187111 -4.53005 6.04312
lowerneck -9.41954 0.39232 -13.8155
upperneck 17.8367 1.99701 4.46386
head 6.84224 0.412933 3.89745
rclavicle -4.41302e-014 2.00773e-014
rhumerus -42.0718 -5.2281 -32.2636
rradius 21.6591
rwrist 9.26774
rhand -11.7735 15.1671
rfingers 7.12502
rthumb 14.2752 -14.3222
lclavicle -4.41302e-014 2.00773e-014
lhumerus -2.22932 -24.4365 82.8273
lradius 42.1447
lwrist 11.1221
lhand -12.5417 52.1447
lfingers 7.12502
lthumb 13.535 81.6848
rfemur -44.028 1.93089 13.4367
rtibia 49.8253
rfoot -20.4169 -8.23932
rtoes -7.99045
lfemur -46.0407 0.0169345 -14.1257
ltibia 49.8883
lfoot -18.205 -3.40045
ltoes -5.54067
85
root 9.89437 15.1134 11.4221 17.857 3.47637 1.4593
lowerback 6.00787 -6.66782 -2.80542
upperback 1.33928 -8.9699 3.78544
thorax -0.909996 -4.50227 6.00299
lowerneck -8.939 0.692436 -13.7156
upperneck 16.7282 2.25377 4.76563
head 6.36817 0.609623 3.9667
rclavicle 4.66895e-014 -1.46604e-014
rhumerus -42.612 -5.0448 -32.522
rradius 21.9716
rwrist 8.43675
rhand -12.0568 14.8297
rfingers 7.12502
rthumb 14.0023 -14.6787
lclavicle 4.66895e-014 -1.46604e-014
lhumerus -2.34598 -24.7982 82.7072
lradius 42.6011
lwrist 11.1745
lhand -12.8939 52.1591
lfingers 7.12502
lthumb 13.1954 81.7215
rfemur -47.5574 0.985275 13.4237
rtibia 51.8081
rfoot -20.63 -6.67029
rtoes -7.08151
lfemur -49.5058 1.34899 -14.4836
ltibia 51.9972
lfoot -18.2378 -3.98069
ltoes -4.92771
86
root 9.89691 14.9976 11.242 19.2207 3.24955 1.27105
lowerback 6.76854 -6.73968 -2.6264
upperback 1.24516 -9.05433 3.75765
thorax -1.44973 -4.52535 5.9955
lowerneck -8.38624 1.02667 -13.6498
upperneck 15.5088 2.57221 4.97953
head 5.84802 0.82777 4.01005
rclavicle -6.83819e-014 2.17669e-014
rhumerus -42.959 -4.97813 -32.7107
rradius 22.2808
rwrist 7.44825
rhand -12.0587 14.3092
rfingers 7.12502
rthumb 14.0005 -15.1993
lclavicle -6.83819e-014 2.17669e-014
lhumerus -2.35935 -25.0154 82.6392
lradius 42.8802
lwrist 11.1849
lhand -13.4503 52.2934
lfingers 7.12502
lthumb 12.6591 81.8897
rfemur -50.9741 -0.212515 13.9283
rtibia 53.6568
rfoot -20.9979 -5.66221
rtoes -6.5211
lfemur -53.1139 2.64995 -14.89
ltibia 54.2269
lfoot -18.3154 -4.31014
ltoes -4.18714
87
root 9.90111 14.8576 11.0647 20.4457 3.21375 0.896988
lowerback 7.57694 -6.83996 -2.28609
upperback 1.20775 -9.15851 3.80957
thorax -1.96668 -4.56064 5.98976
lowerneck -7.68258 1.35183 -13.5789
upperneck 14.1649 2.86611 5.15833
head 5.27245 1.03258 4.03122
rclavicle -9.42239e-014 1.8487e-014
rhumerus -43.2571 -5.16205 -32.7625
rradius 22.4522
rwrist 6.56387
rhand -12.1247 14.117
rfingers 7.12502
rthumb 13.9369 -15.396
lclavicle -9.42239e-014 1.8487e-014
lhumerus -2.37989 -25.2849 82.5656
lradius 43.08
lwrist 11.1951
lhand -13.9502 52.7362
lfingers 7.12502
lthumb 12.1771 82.3618
rfemur -54.3675 -1.44391 14.8946
rtibia 55.6139
rfoot -21.2804 -5.20052
rtoes -6.38862
lfemur -56.6915 4.06793 -15.2749
ltibia 56.5952
lfoot -18.3755 -4.72418
ltoes -3.18213
